<svg id="Layer_1" height="512" viewBox="0 0 128 128" width="512" xmlns="http://www.w3.org/2000/svg" data-name="Layer 1"><path d="m112.65 4.75h-82.33a1.75 1.75 0 0 0 -1.75 1.75v15.942h-13.224a1.751 1.751 0 0 0 -1.75 1.75v97.308a1.75 1.75 0 0 0 1.75 1.75h82.338a1.75 1.75 0 0 0 1.75-1.75v-15.94h13.216a1.75 1.75 0 0 0 1.75-1.75v-97.31a1.749 1.749 0 0 0 -1.75-1.75zm-95.55 115v-93.808h78.834v77.829.039s0 .025 0 .038v15.9zm93.8-17.69h-11.466v-77.868a1.751 1.751 0 0 0 -1.75-1.75h-65.614v-14.192h78.83z"/><path d="m85.265 35.1h-21.265a1.75 1.75 0 0 0 0 3.5h21.265a1.75 1.75 0 0 0 0-3.5z"/><path d="m85.265 53.1h-57.5a1.75 1.75 0 1 0 0 3.5h57.5a1.75 1.75 0 0 0 0-3.5z"/><path d="m85.265 62.1h-57.5a1.75 1.75 0 1 0 0 3.5h57.5a1.75 1.75 0 0 0 0-3.5z"/><path d="m85.265 71.1h-57.5a1.75 1.75 0 0 0 0 3.5h57.5a1.75 1.75 0 0 0 0-3.5z"/><path d="m85.265 80.1h-57.5a1.75 1.75 0 0 0 0 3.5h57.5a1.75 1.75 0 0 0 0-3.5z"/><path d="m85.265 89.1h-57.5a1.75 1.75 0 0 0 0 3.5h57.5a1.75 1.75 0 0 0 0-3.5z"/><path d="m85.265 98.1h-57.5a1.75 1.75 0 0 0 0 3.5h57.5a1.75 1.75 0 0 0 0-3.5z"/><path d="m74.5 107.1h-35.97a1.75 1.75 0 0 0 0 3.5h35.97a1.75 1.75 0 0 0 0-3.5z"/></svg>