<svg height="480pt" viewBox="0 -16 480 480" width="480pt" xmlns="http://www.w3.org/2000/svg"><path d="m176 96v-24c-.027344-22.082031-17.917969-39.972656-40-40h-16c-22.082031.027344-39.972656 17.917969-40 40v24c0 26.507812 21.492188 48 48 48s48-21.492188 48-48zm-56-48h16c13.253906 0 24 10.746094 24 24h-14.113281c-7.925781.015625-15.171875-4.472656-18.6875-11.574219-1.503907-2.523437-4.222657-4.070312-7.160157-4.070312-2.933593 0-5.65625 1.546875-7.160156 4.070312l-3.574218 7.148438c-1.34375 2.722656-4.121094 4.4375-7.152344 4.425781h-6.152344c0-13.253906 10.746094-24 24-24zm8 80c-17.671875 0-32-14.328125-32-32v-8h6.113281c7.488281.03125 14.554688-3.464844 19.078125-9.433594 6.777344 6.101563 15.578125 9.460938 24.695313 9.433594h14.113281v8c0 17.671875-14.328125 32-32 32zm0 0"/><path d="m64 256h128c8.835938 0 16-7.164062 16-16v-40c-.039062-30.910156-25.089844-55.960938-56-56h-48c-30.910156.039062-55.960938 25.089844-56 56v40c0 8.835938 7.164062 16 16 16zm128-56v40h-56v-30.398438l21.054688-49.121093c19.933593 2.503906 34.902343 19.429687 34.945312 39.519531zm-52.136719-40-11.863281 27.6875-11.863281-27.6875zm-75.863281 40c.0625-20.078125 15.023438-36.984375 34.945312-39.488281l21.054688 49.089843v30.398438h-56zm0 0"/><path d="m160 200h16v16h-16zm0 0"/><path d="m392 67.3125v60.6875h16v-60.6875l8.96875 8.96875 11.3125-11.3125-22.625-22.625c-3.125-3.121094-8.1875-3.121094-11.3125 0l-22.625 22.625 11.3125 11.3125zm0 0"/><path d="m400 248c2.121094 0 4.15625-.84375 5.65625-2.34375l22.625-22.625-11.3125-11.3125-8.96875 8.96875v-60.6875h-16v60.6875l-8.96875-8.96875-11.3125 11.3125 22.625 22.625c1.5 1.5 3.535156 2.34375 5.65625 2.34375zm0 0"/><path d="m240 48h48v16h-48zm0 0"/><path d="m240 80h96v16h-96zm0 0"/><path d="m240 128h48v16h-48zm0 0"/><path d="m240 160h96v16h-96zm0 0"/><path d="m240 208h48v16h-48zm0 0"/><path d="m240 240h96v16h-96zm0 0"/><path d="m304 128h16v16h-16zm0 0"/><path d="m304 208h32v16h-32zm0 0"/><path d="m456 0h-432c-13.253906 0-24 10.746094-24 24v304c0 13.253906 10.746094 24 24 24h142.9375l-6 48h-8.9375c-4.417969 0-8 3.582031-8 8v24h-32v16h256v-16h-32v-24c0-4.417969-3.582031-8-8-8h-8.9375l-6-48h142.9375c13.253906 0 24-10.746094 24-24v-304c0-13.253906-10.746094-24-24-24zm-432 16h432c4.417969 0 8 3.582031 8 8v248h-448v-248c0-4.417969 3.582031-8 8-8zm296 416h-160v-16h160zm-17.0625-32h-125.875l6-48h113.875zm153.0625-64h-432c-4.417969 0-8-3.582031-8-8v-40h448v40c0 4.417969-3.582031 8-8 8zm0 0"/><path d="m400 304h32v16h-32zm0 0"/></svg>