<svg height="512pt" viewBox="0 -8 512 512" width="512pt" xmlns="http://www.w3.org/2000/svg"><path d="m272.027344 448.796875h16.03125v15.117187h-16.03125zm0 0"/><path d="m183.871094 327.671875h-111.742188v-31.601563h15.117188v16.484376h96.625zm0 0"/><path d="m199.898438 312.554688h16.03125v15.117187h-16.03125zm0 0"/><path d="m512 0h-336.144531v15.117188h321.027343v369.566406h-232.871093v15.117187h65.457031l8.015625 64.113281h23.15625v16.9375h-209.28125v-16.9375h72.582031v-15.117187h-47.535156l6.121094-48.996094h57.445312v-15.117187h-224.855468v-369.566406h136.695312v-15.117188h-151.8125v399.800781h167.296875l-6.125 48.996094h-24.929687v47.171875h239.515624v-47.171875h-24.929687l-6.125-48.996094h167.296875zm0 0"/><path d="m471.925781 111.742188v-71.671876h-119.753906v15.117188h104.640625v56.554688zm0 0"/><path d="m272.027344 40.070312h-231.957032v319.660157h431.855469v-223.945313h-15.113281v208.828125h-40.984375v-113.113281h39.015625l-70.617188-100.882812-52.109374 74.476562-18.523438 26.40625h14.988281v113.109375h-32.964843v-232.410156h-25.101563l41.585937-59.40625 41.582032 59.40625h-25.097656v63.65625h15.117187v-48.539063h39.015625l-70.621094-100.882812-70.613281 100.882812h39.015625v217.296875h-225.3125v-289.425781h216.839844zm112.203125 116.914063 41.578125 59.398437h-25.097656v128.230469h-32.96875v-128.230469h-24.042969v-.453124h-.714844zm-40.53125 74.515625h8.925781v113.113281h-8.925781zm0 0"/><path d="m239.972656 448.796875h16.027344v15.117187h-16.027344zm0 0"/><path d="m304.085938 448.796875h16.027343v15.117187h-16.027343zm0 0"/><path d="m168.296875 88.15625v64.113281h-16.9375v-32.058593h-47.175781v128.230468h-16.484375v15.113282h160.285156v-15.113282h-32.511719v-160.285156zm32.058594 15.117188v145.167968h-16.941407v-145.167968zm-32.058594 145.167968h-16.9375v-81.054687h16.9375zm-48.996094-113.113281h16.941407v113.113281h-16.941407zm0 0"/><path d="m231.957031 312.554688h16.027344v15.117187h-16.027344zm0 0"/><path d="m231.957031 280.496094h16.027344v15.117187h-16.027344zm0 0"/><path d="m199.898438 280.496094h16.03125v15.117187h-16.03125zm0 0"/><path d="m167.84375 280.496094h16.027344v15.117187h-16.027344zm0 0"/><path d="m135.785156 280.496094h16.027344v15.117187h-16.027344zm0 0"/></svg>