<svg height="480pt" viewBox="0 0 480.00004 480" width="480pt" xmlns="http://www.w3.org/2000/svg"><path d="m16 384c-.023438-14.859375 5.867188-29.117188 16.375-39.625s24.765625-16.398438 39.625-16.375h17.222656l6.890625 41.3125c.492188 2.953125 2.59375 5.386719 5.445313 6.300781 2.851562.914063 5.976562.160157 8.097656-1.957031l34.34375-34.34375v140.6875h16v-140.6875l34.34375 34.34375c1.960938 1.957031 4.796875 2.761719 7.492188 2.125 2.695312-.636719 4.871093-2.625 5.75-5.253906l8-24-15.203126-5.054688-3.917968 11.710938-25.152344-25.183594h28.6875v-54.257812c22.238281-14.429688 36.757812-38.140626 39.496094-64.511719l.96875-9.230469h39.535156c4.417969 0 8-3.582031 8-8v-64c0-4.417969-3.582031-8-8-8h-8c0-66.273438-53.726562-120-120-120s-120 53.726562-120 120h-8c-4.417969 0-8 3.582031-8 8v64c0 4.417969 3.582031 8 8 8h8v24c0 1.453125.394531 2.875 1.144531 4.121094l24 40 13.710938-8.242188-22.855469-38.09375v-21.785156h15.535156l.96875 9.230469c2.738282 26.371093 17.257813 50.082031 39.496094 64.511719v38.257812h-32c-19.101562-.019531-37.429688 7.558594-50.933594 21.066406-13.507812 13.503906-21.0859372 31.832032-21.066406 50.933594v96h16zm93.335938-32.648438-3.894532-23.351562h27.246094zm74.664062-39.351562h-64v-29.976562c20.589844 7.96875 43.410156 7.96875 64 0zm88-128h-29.855469l5.054688-48h24.800781zm-240 0v-48h24.800781l5.054688 48zm24.40625-64h-8.40625c0-57.4375 46.5625-104 104-104s104 46.5625 104 104h-8.40625c-4.078125-49.773438-45.660156-88.089844-95.601562-88.089844-49.941407 0-91.523438 38.316406-95.601563 88.089844zm95.59375-72c41.617188.066406 76.246094 32.011719 79.664062 73.488281l-25.511718-30.617187c-2.113282-2.527344-5.558594-3.5-8.679688-2.453125-29.734375 9.953125-61.792968 10.648437-91.929687 1.988281l-7.351563-2.101562c-3.34375-.953126-6.917968.363281-8.847656 3.253906l-16.359375 24.546875c5.898437-39.105469 39.46875-68.039063 79.015625-68.105469zm-71.582031 159.558594-6.707031-63.703125 25.707031-38.558594 1.742187.503906c31.433594 9.019531 64.800782 8.828125 96.128906-.5625l32.910157 39.496094-6.613281 62.824219c-3.878907 36.628906-34.769532 64.421875-71.601563 64.421875s-67.722656-27.792969-71.601563-64.421875zm0 0"/><path d="m288 448h16v32h-16zm0 0"/><path d="m120 160c0 8.835938-7.164062 16-16 16s-16-7.164062-16-16 7.164062-16 16-16 16 7.164062 16 16zm0 0"/><path d="m216 160c0 8.835938-7.164062 16-16 16s-16-7.164062-16-16 7.164062-16 16-16 16 7.164062 16 16zm0 0"/><path d="m160 200v-16h-11.054688l10.253907-20.425781-14.320313-7.148438-16 32c-1.234375 2.472657-1.105468 5.410157.34375 7.765625 1.449219 2.355469 4.011719 3.796875 6.777344 3.808594zm0 0"/><path d="m178.34375 202.34375c-8.761719 8.714844-20.609375 13.621094-32.96875 13.65625h-9.375v16h9.375c16.601562-.050781 32.511719-6.640625 44.28125-18.34375zm0 0"/><path d="m56 408h16v72h-16zm0 0"/><path d="m232 416h16v64h-16zm0 0"/><path d="m472 288h-21.144531c-1.695313-5.253906-3.808594-10.363281-6.320313-15.28125l14.945313-14.941406c3.121093-3.125 3.121093-8.1875 0-11.3125l-33.945313-33.945313c-3.125-3.121093-8.1875-3.121093-11.3125 0l-14.941406 14.945313c-4.914062-2.515625-10.027344-4.628906-15.28125-6.320313v-21.144531c0-4.417969-3.582031-8-8-8h-48c-4.417969 0-8 3.582031-8 8v21.144531c-5.253906 1.695313-10.363281 3.808594-15.28125 6.320313l-14.941406-14.945313c-3.125-3.121093-8.1875-3.121093-11.3125 0l-33.945313 33.945313c-3.121093 3.125-3.121093 8.1875 0 11.3125l14.953125 14.941406c-2.523437 4.914062-4.636718 10.023438-6.328125 15.28125h-21.144531c-4.417969 0-8 3.582031-8 8v48c0 4.417969 3.582031 8 8 8h21.144531c1.695313 5.253906 3.808594 10.363281 6.320313 15.28125l-14.945313 14.941406c-3.121093 3.125-3.121093 8.1875 0 11.3125l33.945313 33.945313c3.125 3.121093 8.1875 3.121093 11.3125 0l14.941406-14.945313c4.914062 2.515625 10.027344 4.628906 15.28125 6.320313v21.144531c0 4.417969 3.582031 8 8 8h48c4.417969 0 8-3.582031 8-8v-21.144531c5.253906-1.695313 10.363281-3.808594 15.28125-6.320313l14.941406 14.945313c3.125 3.121093 8.1875 3.121093 11.3125 0l33.945313-33.945313c3.121093-3.125 3.121093-8.1875 0-11.3125l-14.953125-14.941406c2.523437-4.914062 4.636718-10.023438 6.328125-15.28125h21.144531c4.417969 0 8-3.582031 8-8v-48c0-4.417969-3.582031-8-8-8zm-8 48h-19.152344c-3.648437 0-6.832031 2.46875-7.742187 6-2.046875 7.945312-5.199219 15.5625-9.363281 22.632812-1.851563 3.140626-1.34375 7.140626 1.234374 9.71875l13.527344 13.527344-22.625 22.625-13.535156-13.527344c-2.589844-2.566406-6.582031-3.074218-9.726562-1.234374-7.0625 4.167968-14.675782 7.320312-22.617188 9.363281-3.53125.910156-6 4.09375-6 7.742187v19.152344h-32v-19.152344c0-3.648437-2.46875-6.832031-6-7.742187-7.941406-2.042969-15.554688-5.195313-22.617188-9.363281-3.144531-1.855469-7.144531-1.347657-9.726562 1.234374l-13.535156 13.527344-22.625-22.625 13.527344-13.535156c2.582031-2.582031 3.089843-6.582031 1.234374-9.726562-4.167968-7.0625-7.320312-14.675782-9.363281-22.617188-.910156-3.53125-4.09375-6-7.742187-6h-19.152344v-32h19.152344c3.648437 0 6.832031-2.46875 7.742187-6 2.046875-7.945312 5.199219-15.5625 9.363281-22.632812 1.851563-3.140626 1.34375-7.140626-1.234374-9.71875l-13.527344-13.527344 22.625-22.625 13.535156 13.527344c2.582031 2.582031 6.582031 3.089843 9.726562 1.234374 7.0625-4.167968 14.675782-7.320312 22.617188-9.363281 3.53125-.910156 6-4.09375 6-7.742187v-19.152344h32v19.152344c0 3.648437 2.46875 6.832031 6 7.742187 7.941406 2.042969 15.554688 5.195313 22.617188 9.363281 3.144531 1.855469 7.144531 1.347657 9.726562-1.234374l13.535156-13.527344 22.625 22.625-13.527344 13.535156c-2.582031 2.582031-3.089843 6.582031-1.234374 9.726562 4.167968 7.0625 7.320312 14.675782 9.363281 22.617188.910156 3.53125 4.09375 6 7.742187 6h19.152344zm0 0"/><path d="m352 248c-39.765625 0-72 32.234375-72 72s32.234375 72 72 72 72-32.234375 72-72c-.042969-39.746094-32.253906-71.957031-72-72zm0 128c-30.929688 0-56-25.070312-56-56s25.070312-56 56-56 56 25.070312 56 56c-.039062 30.910156-25.089844 55.960938-56 56zm0 0"/><path d="m352 280c-22.089844 0-40 17.910156-40 40s17.910156 40 40 40 40-17.910156 40-40c-.027344-22.082031-17.917969-39.972656-40-40zm0 64c-13.253906 0-24-10.746094-24-24s10.746094-24 24-24 24 10.746094 24 24-10.746094 24-24 24zm0 0"/></svg>