<?xml version="1.0" encoding="iso-8859-1"?>
<!-- Generator: Adobe Illustrator 19.0.0, SVG Export Plug-In . SVG Version: 6.00 Build 0)  -->
<svg version="1.1" id="Capa_1" xmlns="http://www.w3.org/2000/svg" xmlns:xlink="http://www.w3.org/1999/xlink" x="0px" y="0px"
	 viewBox="0 0 512.001 512.001" style="enable-background:new 0 0 512.001 512.001;" xml:space="preserve">
<g>
	<g>
		<path d="M460.836,96.664l-77.039-82.816c-1.376-1.479-2.856-2.843-4.41-4.103v76.957c0,7.366,5.992,13.358,13.357,13.358h70.935
			C462.792,98.888,461.847,97.752,460.836,96.664z"/>
	</g>
</g>
<g>
	<g>
		<path d="M392.744,130.077c-23.955,0-43.376-19.419-43.376-43.376V0H111.445C87.462,0,68.019,19.443,68.019,43.426v224.571h255.987
			c30.586,0,55.381,24.795,55.381,55.381v101.695c0,30.586-24.795,55.381-55.381,55.381H69.684
			c5.181,18.187,21.935,31.547,41.761,31.547H429.04c23.983,0,43.426-19.443,43.426-43.426V130.077H392.744z"/>
	</g>
</g>
<g>
	<g>
		<path d="M314.062,298.567H75.655c-19.916,0-36.119,16.203-36.119,36.119v82.74c0,19.915,16.203,36.118,36.119,36.118h238.408
			c19.916,0,36.119-16.203,36.119-36.118v-82.74C350.182,314.771,333.979,298.567,314.062,298.567z M166.495,409.435
			c-2.219,1.513-4.454,2.267-6.705,2.267c-1.801,0-2.99-0.515-3.569-1.543l-14.084-23.925l-14.084,23.925
			c-0.644,1.028-1.833,1.543-3.569,1.543c-2.252,0-4.486-0.754-6.705-2.267c-2.219-1.51-3.328-3.231-3.328-5.161
			c0-0.835,0.289-1.736,0.867-2.701l16.69-25.758l-16.016-25.661c-0.643-1.028-0.965-2.025-0.965-2.99
			c0-1.93,1.062-3.602,3.184-5.017c2.122-1.414,4.309-2.122,6.561-2.122c2.122,0,3.633,0.836,4.534,2.508l12.831,22.381
			l12.831-22.381c0.9-1.672,2.411-2.508,4.534-2.508c2.25,0,4.439,0.708,6.561,2.122c2.122,1.415,3.184,3.087,3.184,5.017
			c0,0.965-0.322,1.962-0.965,2.99l-16.015,25.661l16.69,25.758c0.578,0.965,0.867,1.866,0.867,2.701
			C169.823,406.204,168.714,407.925,166.495,409.435z M216.033,409.195c-0.771,1.288-1.833,1.93-3.184,1.93h-30.485
			c-1.802,0-3.345-0.4-4.631-1.206c-1.287-0.803-1.93-1.944-1.93-3.425v-61.357c0-1.479,0.738-2.605,2.219-3.376
			c1.479-0.771,3.247-1.158,5.306-1.158c2.058,0,3.825,0.386,5.306,1.158c1.48,0.771,2.219,1.897,2.219,3.376v52.867h21.995
			c1.351,0,2.411,0.644,3.184,1.929c0.771,1.288,1.158,2.832,1.158,4.631C217.191,406.366,216.805,407.91,216.033,409.195z
			 M260.603,406.548c-4.438,3.694-10.259,5.54-17.46,5.54c-6.239,0-11.674-1.286-16.305-3.858c-4.631-2.572-6.945-5.465-6.945-8.682
			c0-1.8,0.658-3.602,1.978-5.402c1.317-1.8,2.846-2.702,4.582-2.702c0.966,0,2.041,0.391,3.232,1.17
			c1.189,0.78,2.281,1.645,3.28,2.594c0.996,0.95,2.395,1.814,4.195,2.593c1.8,0.78,3.697,1.17,5.691,1.17
			c2.508,0,4.694-0.53,6.561-1.592c1.864-1.062,2.798-2.653,2.798-4.775s-1.049-3.988-3.137-5.596
			c-2.09-1.607-4.631-3.071-7.621-4.39c-2.991-1.318-5.998-2.799-9.02-4.439c-3.024-1.64-5.58-3.97-7.67-6.994
			c-2.091-3.023-3.136-6.623-3.136-10.804c0-6.818,2.411-11.914,7.235-15.291c4.823-3.376,10.643-5.065,17.461-5.065
			c1.671,0,3.424,0.1,5.257,0.298c1.833,0.199,3.891,0.58,6.175,1.145c2.281,0.563,4.148,1.475,5.595,2.733
			c1.447,1.261,2.171,2.784,2.171,4.572c0,1.7-0.53,3.464-1.592,5.294c-1.062,1.829-2.524,2.745-4.391,2.745
			c-0.771,0-2.411-0.61-4.92-1.833c-2.508-1.222-5.274-1.833-8.296-1.833c-3.217,0-5.629,0.563-7.235,1.689
			c-1.608,1.126-2.411,2.492-2.411,4.1c0,1.48,0.755,2.831,2.267,4.051c1.511,1.223,3.392,2.267,5.643,3.136s4.711,1.994,7.38,3.376
			c2.669,1.385,5.128,2.895,7.38,4.535c2.25,1.64,4.131,3.94,5.644,6.898c1.51,2.959,2.267,6.336,2.267,10.129
			C267.26,397.691,265.04,402.854,260.603,406.548z"/>
	</g>
</g>
<g>
</g>
<g>
</g>
<g>
</g>
<g>
</g>
<g>
</g>
<g>
</g>
<g>
</g>
<g>
</g>
<g>
</g>
<g>
</g>
<g>
</g>
<g>
</g>
<g>
</g>
<g>
</g>
<g>
</g>
</svg>
